<svg width="92" height="92" viewBox="0 0 92 92" fill="none" xmlns="http://www.w3.org/2000/svg">
<path d="M70.7531 60.3742L46.0001 23.1152L21.2471 60.3742L30.3631 75.3122V80.2342H29.5031C27.8571 80.2342 26.5191 81.5732 26.5191 83.2182V88.9232C26.5191 90.5692 27.8581 91.9082 29.5031 91.9082H62.4971C64.1431 91.9082 65.4821 90.5692 65.4821 88.9232V83.2182C65.4821 81.5722 64.1431 80.2342 62.4971 80.2342H61.6361V75.3122L70.7531 60.3742ZM46.0001 48.2482C48.5951 48.2482 50.7051 50.3592 50.7051 52.9542C50.7051 55.5492 48.5951 57.6602 46.0001 57.6602C43.4051 57.6602 41.2941 55.5492 41.2941 52.9542C41.2941 50.3592 43.4051 48.2482 46.0001 48.2482ZM45.0001 28.2342V46.3312C41.7761 46.8162 39.2941 49.5982 39.2941 52.9542C39.2941 56.6512 42.3021 59.6602 46.0001 59.6602C49.6971 59.6602 52.7051 56.6512 52.7051 52.9542C52.7051 49.5982 50.2241 46.8162 47.0001 46.3312V28.2342L68.3821 60.4192L60.0751 74.0322H31.9241L23.6181 60.4192L45.0001 28.2342ZM62.4971 82.2342C63.0401 82.2342 63.4821 82.6752 63.4821 83.2182V88.9232C63.4821 89.4662 63.0401 89.9082 62.4971 89.9082H29.5031C28.9601 89.9082 28.5191 89.4662 28.5191 88.9232V83.2182C28.5191 82.6752 28.9601 82.2342 29.5031 82.2342H30.3631H61.6351H62.4971ZM32.3631 80.2342V76.0322H59.6351V80.2342H32.3631Z" fill="#9B51E0"/>
<path d="M86.125 18.8818C84.235 18.8818 82.561 19.8018 81.512 21.2148C73.886 12.0868 63.304 6.34782 51.52 4.94982V0.0908203H40.48V4.94982C28.696 6.34682 18.114 12.0868 10.488 21.2148C9.439 19.8028 7.764 18.8818 5.875 18.8818C2.705 18.8818 0.125 21.4618 0.125 24.6318C0.125 27.8018 2.705 30.3818 5.875 30.3818C9.045 30.3818 11.625 27.8018 11.625 24.6318C11.625 24.1338 11.555 23.6538 11.436 23.1938C18.721 14.1128 29.002 8.38782 40.481 6.96482V11.1288H51.52V6.96482C62.999 8.38782 73.28 14.1128 80.565 23.1938C80.446 23.6538 80.376 24.1348 80.376 24.6318C80.376 27.8018 82.955 30.3818 86.126 30.3818C89.297 30.3818 91.876 27.8018 91.876 24.6318C91.876 21.4618 89.296 18.8818 86.125 18.8818ZM5.875 28.3818C3.807 28.3818 2.125 26.6998 2.125 24.6318C2.125 22.5638 3.807 20.8818 5.875 20.8818C7.943 20.8818 9.625 22.5638 9.625 24.6318C9.625 26.6998 7.943 28.3818 5.875 28.3818ZM49.52 9.12882H42.48V2.09082H49.519V9.12882H49.52ZM86.125 28.3818C84.058 28.3818 82.375 26.6998 82.375 24.6318C82.375 22.5638 84.058 20.8818 86.125 20.8818C88.192 20.8818 89.875 22.5638 89.875 24.6318C89.875 26.6998 88.192 28.3818 86.125 28.3818Z" fill="#9B51E0"/>
</svg>
