<svg width="90" height="90" viewBox="0 0 90 90" fill="none" xmlns="http://www.w3.org/2000/svg">
<path d="M78.4446 80.6849C78.4446 81.9071 77.4446 82.9071 76.2223 82.9071C75.0001 82.9071 74.0001 81.9071 74.0001 80.6849C74.0001 79.4627 75.0001 78.4627 76.2223 78.4627C77.4446 78.4627 78.4446 79.4627 78.4446 80.6849ZM55.0001 79.4627C53.7779 79.4627 52.7779 80.4627 52.7779 81.6849C52.7779 82.9071 53.7779 83.9071 55.0001 83.9071C56.2223 83.9071 57.2223 82.9071 57.2223 81.6849C57.1112 80.3516 56.2223 79.4627 55.0001 79.4627ZM27.6668 55.1293C26.4446 55.1293 25.4446 56.1293 25.4446 57.3516C25.4446 58.5738 26.4446 59.5738 27.6668 59.5738C28.889 59.5738 29.889 58.5738 29.889 57.3516C29.889 56.1293 28.889 55.1293 27.6668 55.1293ZM87.0001 61.3516C85.7779 61.3516 84.7779 62.3516 84.7779 63.5738C84.7779 64.796 85.7779 65.796 87.0001 65.796C88.2223 65.796 89.2223 64.796 89.2223 63.5738C89.2223 62.3516 88.2223 61.3516 87.0001 61.3516ZM49.2223 34.6849C49.2223 35.9071 50.2223 36.9071 51.4446 36.9071C52.6668 36.9071 53.6668 35.9071 53.6668 34.6849C53.6668 33.4627 52.6668 32.4627 51.4446 32.4627C50.2223 32.4627 49.2223 33.4627 49.2223 34.6849ZM70.4446 18.4627C71.6668 18.4627 72.6668 17.4627 72.6668 16.2405C72.6668 15.0182 71.6668 14.0182 70.4446 14.0182C69.2223 14.0182 68.2223 15.0182 68.2223 16.2405C68.2223 17.4627 69.2223 18.4627 70.4446 18.4627ZM80.6668 38.6849C79.4446 38.6849 78.4446 39.6849 78.4446 40.9071C78.4446 42.1293 79.4446 43.1293 80.6668 43.1293C81.889 43.1293 82.889 42.1293 82.889 40.9071C82.889 39.6849 81.7779 38.6849 80.6668 38.6849ZM29.889 31.5738C31.1112 31.5738 32.1112 30.5738 32.1112 29.3516C32.1112 28.1293 31.1112 27.1293 29.889 27.1293C28.6668 27.1293 27.6668 28.1293 27.6668 29.3516C27.6668 30.5738 28.6668 31.5738 29.889 31.5738ZM34.2223 4.79601C35.4446 4.79601 36.4446 3.79601 36.4446 2.57378C36.4446 1.35156 35.4446 0.351562 34.2223 0.351562C33.0001 0.351562 32.0001 1.35156 32.0001 2.57378C32.0001 3.79601 33.0001 4.79601 34.2223 4.79601ZM18.0001 44.796C18.0001 46.0182 19.0001 47.0182 20.2223 47.0182C21.4446 47.0182 22.4446 46.0182 22.4446 44.796C22.4446 43.5738 21.4446 42.5738 20.2223 42.5738C19.0001 42.5738 18.0001 43.5738 18.0001 44.796ZM18.0001 17.0182C19.2223 17.0182 20.2223 16.0182 20.2223 14.796C20.2223 13.5738 19.2223 12.5738 18.0001 12.5738C16.7779 12.5738 15.7779 13.5738 15.7779 14.796C15.7779 16.0182 16.7779 17.0182 18.0001 17.0182ZM2.77789 63.1293C1.55566 63.1293 0.555664 64.1293 0.555664 65.3516C0.555664 66.5738 1.55566 67.5738 2.77789 67.5738C4.00011 67.5738 5.00011 66.5738 5.00011 65.3516C4.889 64.1293 3.889 63.1293 2.77789 63.1293ZM42.1112 14.6849C41.889 13.1293 42.5557 11.6849 43.889 10.9071C45.2223 10.1293 46.889 10.3516 48.1112 11.3516C48.4446 11.5738 48.7779 12.0182 49.1112 12.5738C49.2223 11.0182 48.5557 9.24045 47.2223 7.35156C46.889 6.90712 47.0001 6.24045 47.4446 5.90712C47.889 5.57378 48.5557 5.6849 48.889 6.12934C52.4446 11.1293 51.0001 14.5738 50.2223 15.796C50.2223 15.796 50.2223 15.9071 50.1112 15.9071C50.3334 17.6849 50.1112 20.1293 49.1112 23.4627C49.0001 23.9071 48.5557 24.2405 48.1112 24.2405C48.0001 24.2405 47.889 24.2405 47.7779 24.2405C47.2223 24.0182 46.889 23.4627 47.1112 22.9071C47.7779 20.796 48.0001 19.1293 48.1112 17.796C47.2223 18.1293 46.1112 18.3516 45.0001 18.0182C43.4446 17.6849 42.3334 16.4627 42.1112 14.6849ZM44.3334 14.4627C44.4446 15.3516 44.889 15.9071 45.5557 16.0182C46.2223 16.1293 47.3334 15.9071 48.1112 15.2405C47.7779 13.9071 47.2223 13.3516 46.889 13.1293C46.5557 12.796 46.1112 12.6849 45.7779 12.6849C45.4446 12.6849 45.2223 12.796 45.0001 12.9071C44.4446 13.1293 44.2223 13.6849 44.3334 14.4627ZM82.1112 51.3516C81.889 51.9071 81.2223 52.1293 80.6668 51.9071C71.4446 48.1293 62.4446 50.6849 57.2223 53.0182C58.2223 54.2405 59.0001 55.4627 59.7779 56.6849C62.889 55.5738 65.3335 56.4627 66.5557 57.0182C67.2223 57.3516 67.7779 57.6849 68.3334 58.1293C70.5557 57.2405 73.7779 56.6849 77.6668 56.796C78.2223 56.796 78.7779 57.2405 78.7779 57.9071C78.7779 58.4627 78.3335 59.0182 77.6668 59.0182C77.6668 59.0182 77.4446 59.0182 77.3334 59.0182C73.7779 59.0182 71.4446 59.4627 69.889 59.9071C71.0001 61.3516 71.5557 63.0182 71.2223 64.3516C70.889 65.5738 70.0001 66.3516 68.5557 66.3516C67.0001 66.3516 65.6668 65.5738 64.889 64.3516C64.2223 63.2405 64.2223 61.9071 64.889 60.796C65.2223 60.2405 65.5557 59.796 66.1112 59.3516C65.889 59.2405 65.6668 59.1293 65.4446 59.0182C63.889 58.2405 62.3334 58.1293 60.6668 58.5738C63.1112 63.0182 64.0001 66.796 62.1112 68.796C61.889 69.0182 61.5557 69.2404 61.2223 69.4627C61.2223 69.4627 61.2223 69.4627 61.1112 69.5738C60.7779 69.6849 24.7779 84.9071 15.5557 89.0182C15.0001 89.2404 14.4446 89.3516 13.889 89.3516C11.7779 89.3516 10.1112 87.6849 10.1112 85.5738C10.1112 85.1293 10.2223 84.5738 10.4446 84.1293L27.5557 36.5738C27.5557 36.5738 27.5557 36.4627 27.6668 36.4627C27.889 35.9071 28.1112 35.4627 28.4446 35.1293C30.4446 33.0182 34.6668 34.2405 39.4446 37.0182C39.3334 32.796 38.6668 28.3516 36.5557 25.0182C34.889 22.3516 32.4446 20.5738 29.3334 19.9071C28.7779 19.796 28.3334 19.2405 28.5557 18.6849C28.6668 18.1293 29.2223 17.6849 29.7779 17.9071C33.5557 18.6849 36.4446 20.6849 38.4446 23.9071C41.0001 28.0182 41.7779 33.5738 41.6668 38.4627C44.7779 40.5738 48.1112 43.3516 51.0001 46.2405C52.5557 47.796 54.1112 49.5738 55.5557 51.2405C61.0001 48.6849 70.889 45.5738 81.2223 49.9071C82.1112 50.2405 82.3335 50.796 82.1112 51.3516ZM67.0001 63.3516C67.3335 63.9071 68.0001 64.2405 68.7779 64.2405C69.2223 64.2405 69.3335 64.1293 69.3335 63.9071C69.4446 63.3516 69.0001 62.0182 68.0001 60.9071C67.3334 61.3516 67.1112 61.6849 67.0001 61.9071C66.7779 62.5738 66.889 63.0182 67.0001 63.3516ZM56.5557 69.3516C55.5557 69.0182 54.3334 68.4627 53.1112 67.796C49.0001 65.6849 44.4446 62.0182 40.0001 57.6849C35.6668 53.3516 32.0001 48.6849 29.889 44.5738C29.3334 43.4627 28.889 42.4627 28.4446 41.4627L12.7779 85.0182C12.7779 85.0182 12.7779 85.0182 12.7779 85.1293C12.7779 85.2404 12.6668 85.4627 12.6668 85.5738C12.6668 86.4627 13.3334 87.1293 14.2223 87.1293C14.4446 87.1293 14.5557 87.1293 14.7779 87.0182L15.0001 86.9071H15.1112C22.6668 83.6849 46.7779 73.4627 56.5557 69.3516ZM55.3334 54.0182C53.7779 54.9071 52.7779 55.5738 52.7779 55.5738C52.5557 55.6849 52.3334 55.796 52.1112 55.796C51.7779 55.796 51.4446 55.6849 51.2223 55.3516C50.889 54.9071 51.0001 54.2405 51.4446 53.9071C51.5557 53.796 52.4446 53.2405 53.889 52.4627C52.6668 51.0182 51.3334 49.4627 49.7779 48.0182C47.0001 45.2405 44.3334 43.0182 41.889 41.2405C41.5557 46.2405 40.6668 50.2405 40.5557 50.5738C40.4446 51.0182 40.0001 51.3516 39.5557 51.3516C39.4446 51.3516 39.3334 51.3516 39.3334 51.3516C38.7779 51.2405 38.4446 50.6849 38.5557 50.0182C38.5557 49.9071 39.6668 45.3516 39.889 39.796C36.3334 37.5738 33.5557 36.4627 31.7779 36.4627C31.1112 36.4627 30.6668 36.5738 30.3334 36.9071C29.6668 37.5738 29.6668 39.796 31.7779 43.796C33.889 47.6849 37.3334 52.1293 41.5557 56.3516C45.7779 60.5738 50.2223 64.0182 54.1112 66.1293C58.1112 68.2404 60.3334 68.2405 61.0001 67.5738C62.0001 66.5738 61.3334 63.6849 59.1112 59.796C57.7779 60.5738 56.4446 61.6849 55.1112 63.2405C54.7779 63.6849 54.0001 63.796 53.5557 63.3516C53.1112 63.0182 53.0001 62.2405 53.4446 61.796C55.0001 59.9071 56.5557 58.6849 57.889 57.9071C57.2223 56.5738 56.3334 55.3516 55.3334 54.0182ZM52.1112 41.5738C52.3334 41.796 52.5557 41.9071 52.889 41.9071C53.2223 41.9071 53.4446 41.796 53.6668 41.5738C65.0001 29.9071 65.2223 16.9071 65.2223 16.3516C65.2223 15.796 64.7779 15.2405 64.1112 15.2405C63.5557 15.2405 63.0001 15.6849 63.0001 16.3516C63.0001 16.4627 62.7779 29.1293 52.1112 40.1293C51.6668 40.4627 51.6668 41.1293 52.1112 41.5738ZM88.0001 25.2405C84.889 33.4627 80.7779 34.3516 78.5557 34.1293C78.3334 34.1293 78.2223 34.1293 78.0001 34.0182C76.3334 35.3516 73.889 36.6849 70.1112 38.0182C70.0001 38.0182 69.889 38.1293 69.7779 38.1293C69.3335 38.1293 68.889 37.796 68.7779 37.3516C68.5557 36.796 68.889 36.1293 69.4446 36.0182C72.2223 35.1293 74.2223 34.1293 75.6668 33.1293C74.5557 32.2405 73.7779 31.0182 73.5557 29.9071C73.2223 28.3516 74.0001 26.9071 75.4446 26.2405C76.889 25.4627 78.5557 25.5738 79.6668 26.3516C80.6668 27.1293 81.2223 28.3516 81.0001 29.6849C80.889 30.2405 80.6668 31.0182 80.1112 31.9071C82.3334 31.2405 84.4446 28.6849 86.0001 24.4627C86.2223 23.9071 86.889 23.6849 87.3334 23.796C88.0001 24.0182 88.2223 24.6849 88.0001 25.2405ZM78.4446 28.0182C78.2223 27.796 77.889 27.796 77.5557 27.796C77.2223 27.796 76.7779 27.9071 76.4446 28.1293C75.889 28.4627 75.6668 28.9071 75.7779 29.4627C75.889 30.2405 76.5557 31.1293 77.5557 31.5738C78.4446 30.6849 78.7779 29.9071 78.889 29.2405C79.0001 28.796 78.889 28.3516 78.4446 28.0182Z" fill="#FF6464"/>
</svg>
