<svg width="70" height="81" viewBox="0 0 70 81" fill="none" xmlns="http://www.w3.org/2000/svg">
<path d="M67.859 41.6777C68.665 40.8857 69.108 39.8237 69.108 38.6887C69.108 36.3587 67.213 34.4637 64.883 34.4637H64.091V33.2767C64.091 31.3197 62.675 29.6967 60.817 29.3627L63.682 23.0457C65.319 22.3057 66.397 20.6757 66.397 18.8397C66.397 16.7847 65.062 15.0157 63.15 14.4267L53.257 4.53269C53.266 4.42069 53.277 4.30869 53.277 4.19469C53.277 3.17369 52.875 2.20769 52.144 1.47569C50.645 -0.024312 48.205 -0.0233114 46.703 1.47969L46.16 2.02769C43.747 1.47969 41.228 2.17469 39.454 3.94169L36.814 6.59069C36.434 6.97269 36.435 7.58969 36.815 7.96969L45.659 16.8137C45.842 16.9967 46.089 17.0997 46.348 17.0997H46.349C46.609 17.0997 46.856 16.9967 47.039 16.8127L49.677 14.1677C50.391 13.4587 50.913 12.6167 51.27 11.7037L57.269 17.7007C57.175 18.0717 57.11 18.4497 57.11 18.8397C57.11 19.5377 57.272 20.2157 57.567 20.8307L53.734 29.2907H48.512C46.319 29.2907 44.535 31.0787 44.535 33.2767V34.4637H41.335V28.8257C41.335 28.2857 40.899 27.8497 40.359 27.8497H32.875C30.038 27.8497 27.563 29.4177 26.261 31.7287C24.959 29.4177 22.484 27.8497 19.647 27.8497H12.163C11.623 27.8497 11.187 28.2857 11.187 28.8257V34.4637H4.225C3.09 34.4637 2.029 34.9067 1.249 35.7007C0.456 36.4797 0 37.5687 0 38.6887C0 41.0177 1.895 42.9127 4.225 42.9127H7.737L2.939 75.4777C2.902 75.6907 2.887 75.9047 2.887 76.1197C2.887 78.1987 4.438 79.9977 6.498 80.3057C6.705 80.3367 6.913 80.3517 7.119 80.3517C8.021 80.3517 8.896 80.0627 9.632 79.5147C10.538 78.8407 11.127 77.8527 11.29 76.7337L14.792 52.9667H54.316L57.818 76.7327C57.981 77.8527 58.57 78.8407 59.476 79.5147C60.212 80.0627 61.087 80.3507 61.99 80.3507C62.197 80.3507 62.405 80.3367 62.613 80.3057C64.67 79.9977 66.221 78.1987 66.221 76.1197C66.221 75.9047 66.206 75.6907 66.173 75.5037L61.371 42.9127H64.883C66.017 42.9127 67.078 42.4697 67.859 41.6777ZM62.621 21.3827C62.348 21.4807 62.066 21.5277 61.758 21.5277C60.824 21.5277 59.973 21.0597 59.477 20.2667C59.205 19.8437 59.061 19.3497 59.061 18.8397C59.061 18.4777 59.131 18.1297 59.271 17.7997C59.691 16.7937 60.668 16.1437 61.758 16.1437C61.977 16.1437 62.181 16.1697 62.393 16.2267C63.601 16.5167 64.446 17.5917 64.446 18.8397C64.446 19.9937 63.719 21.0137 62.621 21.3827ZM50.764 2.85469C51.127 3.21769 51.326 3.69369 51.326 4.19469C51.326 4.34969 51.309 4.49069 51.269 4.64669C51.231 4.80369 51.169 4.95469 51.09 5.09869C51.064 5.14469 51.027 5.18569 50.997 5.22969C50.945 5.30769 50.89 5.38369 50.826 5.45369C50.814 5.43269 50.798 5.41469 50.786 5.39369C50.682 5.21769 50.565 5.05069 50.446 4.88369C50.388 4.80269 50.336 4.71669 50.275 4.63769C50.088 4.39669 49.888 4.16569 49.671 3.94869C49.543 3.82169 49.406 3.69369 49.274 3.58169C49.095 3.42769 48.908 3.28369 48.715 3.14769C48.645 3.09869 48.571 3.05669 48.499 3.00969C48.385 2.93569 48.273 2.85769 48.155 2.78969C48.897 2.11869 50.047 2.13769 50.764 2.85469ZM48.299 12.7857L46.348 14.7427L38.883 7.27869L40.833 5.32169C42.235 3.92569 44.28 3.43369 46.173 4.03569C46.83 4.24269 47.462 4.59669 48.006 5.06469C48.104 5.14769 48.202 5.23869 48.291 5.32969C48.892 5.92869 49.339 6.66069 49.587 7.45669C49.756 7.97369 49.841 8.51269 49.841 9.05669C49.841 9.26469 49.828 9.47969 49.798 9.70469C49.657 10.8877 49.139 11.9517 48.299 12.7857ZM51.793 9.05669C51.793 8.72269 51.761 8.39069 51.714 8.06069C51.701 7.96369 51.682 7.86869 51.665 7.77369C51.645 7.66369 51.633 7.55269 51.608 7.44469L52.144 6.91269C52.268 6.79069 52.382 6.65869 52.487 6.52269L60.368 14.4037C60.269 14.4347 60.176 14.4797 60.08 14.5167C59.971 14.5587 59.86 14.5947 59.755 14.6447C59.668 14.6857 59.588 14.7397 59.504 14.7867C59.393 14.8477 59.279 14.9037 59.174 14.9747C59.137 14.9997 59.105 15.0307 59.069 15.0567C58.745 15.2867 58.445 15.5527 58.189 15.8617L51.781 9.45469C51.789 9.32169 51.793 9.18869 51.793 9.05669ZM58.939 22.5317C58.951 22.5417 58.966 22.5487 58.979 22.5587C59.105 22.6527 59.237 22.7357 59.371 22.8167C59.413 22.8417 59.452 22.8717 59.495 22.8957C59.674 22.9957 59.859 23.0827 60.05 23.1577C60.106 23.1787 60.165 23.1937 60.221 23.2127C60.36 23.2607 60.499 23.3077 60.642 23.3427C60.72 23.3617 60.8 23.3727 60.88 23.3877C61.006 23.4117 61.133 23.4347 61.262 23.4477C61.292 23.4507 61.321 23.4597 61.351 23.4617L58.706 29.2907H55.876L58.939 22.5317ZM46.487 33.2767C46.487 32.1557 47.396 31.2427 48.512 31.2427H60.114C61.231 31.2427 62.14 32.1557 62.14 33.2767V34.4637H46.487V33.2767ZM32.875 29.8007H39.384V31.1567H32.818C32.279 31.1567 31.842 31.5927 31.842 32.1327C31.842 32.6717 32.279 33.1077 32.818 33.1077H39.384V34.4637H27.321C27.784 31.8177 30.099 29.8007 32.875 29.8007ZM13.138 33.1077H19.469C20.008 33.1077 20.444 32.6717 20.444 32.1327C20.444 31.5927 20.008 31.1567 19.469 31.1567H13.138V29.8007H19.647C22.423 29.8007 24.737 31.8177 25.201 34.4637H13.138V33.1077ZM1.952 38.6887C1.952 38.0797 2.188 37.5127 2.628 37.0797C3.05 36.6517 3.617 36.4147 4.225 36.4147H64.883C66.137 36.4147 67.156 37.4347 67.156 38.6887C67.156 39.2967 66.92 39.8637 66.481 40.2967C66.058 40.7257 65.491 40.9617 64.883 40.9617H60.241H53.677H15.431H8.867H4.225C2.971 40.9617 1.952 39.9427 1.952 38.6887ZM9.36 76.4507C9.271 77.0537 8.955 77.5867 8.467 77.9497C7.981 78.3117 7.384 78.4647 6.784 78.3757C5.675 78.2097 4.839 77.2397 4.839 76.1197C4.839 76.0177 4.843 75.9157 4.865 75.7877L9.709 42.9127H14.3L12.98 51.8487C12.979 51.8547 12.982 51.8607 12.981 51.8677L9.36 76.4507ZM15.079 51.0157L15.618 47.3577H28.984C29.523 47.3577 29.96 46.9217 29.96 46.3817C29.96 45.8427 29.523 45.4067 28.984 45.4067H15.906L16.273 42.9127H52.835L54.029 51.0157H15.079ZM64.247 75.8147C64.265 75.9157 64.269 76.0177 64.269 76.1197C64.269 77.2397 63.433 78.2097 62.328 78.3757C61.725 78.4627 61.128 78.3117 60.641 77.9497C60.153 77.5867 59.837 77.0537 59.748 76.4497L56.127 51.8677C56.126 51.8607 56.129 51.8547 56.128 51.8487L54.808 42.9127H59.399L64.247 75.8147Z" fill="#EF8B43"/>
<path d="M34.554 45.4062H33.31C32.77 45.4062 32.334 45.8422 32.334 46.3812C32.334 46.9212 32.77 47.3573 33.31 47.3573H34.554C35.093 47.3573 35.53 46.9212 35.53 46.3812C35.53 45.8422 35.093 45.4062 34.554 45.4062Z" fill="#EF8B43"/>
</svg>
