<svg width="68" height="68" viewBox="0 0 68 68" fill="none" xmlns="http://www.w3.org/2000/svg">
<path d="M61.8195 6.18041C57.4686 1.82838 51.4398 -0.359118 45.2743 0.174632C35.8725 0.989476 28.0139 8.35479 26.5876 17.6899C26.393 18.9664 26.3197 20.2537 26.359 21.5312L14.4448 9.61698C13.2417 8.41276 11.6405 7.74994 9.93749 7.74994C8.23453 7.74994 6.63328 8.41276 5.43015 9.61698L1.96078 13.0864C0.756562 14.2895 0.09375 15.8907 0.09375 17.5937C0.09375 19.2967 0.756562 20.8979 1.96078 22.101L16.5941 36.7343L14.8594 38.469L12.4837 36.0934C11.8395 35.4492 10.982 35.0937 10.0698 35.0937C8.1875 35.0937 6.65625 36.6249 6.65625 38.5073C6.65625 39.391 6.99531 40.219 7.60234 40.8556C6.40359 41.386 5.5625 42.5826 5.5625 43.976C5.5625 44.8882 5.91796 45.7457 6.56218 46.3899L6.75031 46.5781L5.3175 48.0109C3.35969 49.9687 2.28125 52.5729 2.28125 55.3445C2.28125 61.0648 6.93515 65.7187 12.6555 65.7187C15.427 65.7187 18.0323 64.6392 19.9912 62.6803L21.4219 61.2496L21.61 61.4378C22.2542 62.082 23.1117 62.4374 24.0239 62.4374C25.4173 62.4374 26.6139 61.5963 27.1444 60.3976C27.7809 61.0046 28.6089 61.3437 29.4926 61.3437C31.375 61.3437 32.9062 59.8124 32.9062 57.9301C32.9062 57.0179 32.5508 56.1604 31.9065 55.5162L29.5309 53.1406L31.2656 51.4059L43.2629 63.4032L57.7409 67.8581L60.25 67.9062V65.7187L55.747 50.9192L46.4698 41.642C47.7473 41.6814 49.0347 41.6081 50.3111 41.4134C59.6451 39.9871 67.0115 32.1285 67.8264 22.7267C68.3601 16.5623 66.1715 10.5314 61.8195 6.18041ZM24.0698 29.2585L23.6094 29.719L17.4997 23.6093L21.4219 19.6871L26.3503 24.6156C26.0944 26.3874 25.3101 28.0171 24.0698 29.2585ZM10.4844 27.5315L8.74968 25.7968L18.1406 16.4059L19.8753 18.1406L10.4844 27.5315ZM2.28125 17.5937C2.28125 16.4759 2.71656 15.4237 3.50734 14.6329L6.97671 11.1635C8.55828 9.58198 11.3167 9.58198 12.8983 11.1635L16.5941 14.8593L7.20312 24.2503L3.50734 20.5545C2.71656 19.7637 2.28125 18.7115 2.28125 17.5937ZM12.0309 29.0781L15.9531 25.1559L22.0628 31.2656L18.1406 35.1878L12.0309 29.0781ZM18.4447 61.1337C16.8981 62.6792 14.843 63.5312 12.6555 63.5312C8.14156 63.5312 4.46875 59.8584 4.46875 55.3445C4.46875 53.157 5.31968 51.1029 6.86406 49.5574L8.29687 48.1246L19.8753 59.7031L18.4447 61.1337ZM24.0239 60.2499C23.6958 60.2499 23.3884 60.122 23.1565 59.8912L8.10874 44.8434C7.87796 44.6115 7.74999 44.3042 7.74999 43.976C7.74999 43.3001 8.30015 42.7499 8.97609 42.7499C9.30421 42.7499 9.61156 42.8779 9.84343 43.1087L24.8912 58.1565C25.122 58.3884 25.25 58.6957 25.25 59.0239C25.25 59.6998 24.6998 60.2499 24.0239 60.2499ZM30.7187 57.9301C30.7187 58.606 30.1686 59.1562 29.4926 59.1562C29.1645 59.1562 28.8572 59.0282 28.6253 58.7974L26.4378 56.6099L11.39 41.5621L9.20249 39.3746C8.97171 39.1428 8.84374 38.8354 8.84374 38.5073C8.84374 37.8313 9.3939 37.2812 10.0698 37.2812C10.398 37.2812 10.7053 37.4092 10.9372 37.6399L30.36 57.0628C30.5908 57.2946 30.7187 57.602 30.7187 57.9301ZM43.6556 19.3284C43.8547 19.1293 44.0318 18.9149 44.1861 18.6874H49.3125V23.6465L23.1106 46.7192L21.2786 44.8871L43.6556 19.3284ZM42.7336 16.4999H40.5625C39.3561 16.4999 38.375 15.5189 38.375 14.3124C38.375 13.106 39.3561 12.1249 40.5625 12.1249C41.7689 12.1249 42.75 13.106 42.75 14.3124V16.2342C42.75 16.3239 42.7445 16.4124 42.7336 16.4999ZM43.3843 41.6496L53.2347 51.4999L49.3125 55.4221L38.2809 44.3906L38.7381 43.9334C39.9817 42.6909 41.6114 41.9056 43.3843 41.6496ZM36.7344 45.9371L47.7659 56.9687L43.8437 60.8909L32.8122 49.8593L36.7344 45.9371ZM57.9892 65.6454L45.9011 61.9267L54.2693 53.5584L57.9892 65.6454ZM65.6465 22.5374C64.917 30.9462 58.3293 37.9757 49.9807 39.251C48.5184 39.4742 47.0386 39.5267 45.5861 39.4053C42.4153 39.1417 39.3506 40.2278 37.1915 42.3868L27.9844 51.594L24.6594 48.269L49.3168 26.5537C49.4273 28.8692 51.3457 30.7187 53.6875 30.7187C56.1003 30.7187 58.0625 28.7565 58.0625 26.3437C58.0625 23.9309 56.1003 21.9687 53.6875 21.9687H52.8595C52.3892 21.9687 51.9309 22.042 51.5 22.1809V16.4999H44.9298C44.9353 16.4114 44.9375 16.3239 44.9375 16.2342V14.3124C44.9375 11.8996 42.9753 9.93744 40.5625 9.93744C38.1497 9.93744 36.1875 11.8996 36.1875 14.3124C36.1875 16.7253 38.1497 18.6874 40.5625 18.6874H41.3128L19.7276 43.3373L16.4059 40.0156L25.6164 30.8051C27.7733 28.6482 28.8594 25.589 28.5947 22.4139C28.4733 20.9603 28.5258 19.4826 28.7489 18.0192C30.0253 9.67057 37.0537 3.08182 45.4625 2.35338C50.9859 1.87869 56.3792 3.83432 60.2729 7.72698C64.1667 11.6207 66.1245 17.0184 65.6465 22.5374ZM51.5 26.3437V24.6298C51.8861 24.3224 52.3597 24.1562 52.8595 24.1562H53.6875C54.8939 24.1562 55.875 25.1373 55.875 26.3437C55.875 27.5501 54.8939 28.5312 53.6875 28.5312C52.4811 28.5312 51.5 27.5501 51.5 26.3437Z" fill="#333333"/>
<path d="M47.125 4.46875V6.65625C53.3703 6.65625 58.9758 10.8322 60.7553 16.8117L62.8521 16.1883C60.798 9.28781 54.3306 4.46875 47.125 4.46875Z" fill="#333333"/>
<path d="M61.3435 20.8749H63.531C63.531 20.0918 63.4752 19.3032 63.3647 18.5332L61.2002 18.8416C61.2954 19.511 61.3435 20.1946 61.3435 20.8749Z" fill="#333333"/>
</svg>
