<svg width="62" height="62" viewBox="0 0 62 62" fill="none" xmlns="http://www.w3.org/2000/svg">
<path d="M25.5312 57.25H6.9375C6.64742 57.25 6.36922 57.1348 6.1641 56.9297C5.95898 56.7245 5.84375 56.4463 5.84375 56.1563V32.0938C5.84375 31.8037 5.95898 31.5255 6.1641 31.3204C6.36922 31.1153 6.64742 31 6.9375 31H22.25V17.875H6.9375C6.64742 17.875 6.36922 17.7598 6.1641 17.5547C5.95898 17.3495 5.84375 17.0713 5.84375 16.7813V1.46877C5.84375 1.17869 5.95898 0.900488 6.1641 0.69537C6.36922 0.490253 6.64742 0.375018 6.9375 0.375018H37.5625C37.7064 0.374186 37.8491 0.401776 37.9824 0.456206C38.1157 0.510636 38.2369 0.590835 38.3391 0.692206L47.0891 9.44221C47.1904 9.54441 47.2706 9.66561 47.3251 9.79887C47.3795 9.93213 47.4071 10.0748 47.4062 10.2188V38.6563C47.4062 38.9463 47.291 39.2245 47.0859 39.4297C46.8808 39.6348 46.6026 39.75 46.3125 39.75H26.625V56.1563C26.625 56.4463 26.5098 56.7245 26.3046 56.9297C26.0995 57.1348 25.8213 57.25 25.5312 57.25ZM8.03125 55.0625H24.4375V38.6563C24.4375 38.3662 24.5527 38.088 24.7579 37.8829C24.963 37.6777 25.2412 37.5625 25.5312 37.5625H45.2188V10.6672L37.1141 2.56252H8.03125V15.6875H23.3438C23.6338 15.6875 23.912 15.8028 24.1171 16.0079C24.3223 16.213 24.4375 16.4912 24.4375 16.7813V32.0938C24.4375 32.3838 24.3223 32.662 24.1171 32.8672C23.912 33.0723 23.6338 33.1875 23.3438 33.1875H8.03125V55.0625Z" fill="#333333"/>
<path d="M60.5312 61.625H25.5312C25.2412 61.625 24.963 61.5098 24.7579 61.3046C24.5527 61.0995 24.4375 60.8213 24.4375 60.5312V38.6562C24.4375 38.3662 24.5527 38.088 24.7579 37.8829C24.963 37.6777 25.2412 37.5625 25.5312 37.5625H60.5312C60.8213 37.5625 61.0995 37.6777 61.3046 37.8829C61.5098 38.088 61.625 38.3662 61.625 38.6562V60.5312C61.625 60.8213 61.5098 61.0995 61.3046 61.3046C61.0995 61.5098 60.8213 61.625 60.5312 61.625ZM26.625 59.4375H59.4375V39.75H26.625V59.4375Z" fill="#333333"/>
<path d="M23.3438 33.1875H1.46875C1.17867 33.1875 0.90047 33.0723 0.695352 32.8671C0.490234 32.662 0.375 32.3838 0.375 32.0938V16.7812C0.375 16.4912 0.490234 16.213 0.695352 16.0079C0.90047 15.8027 1.17867 15.6875 1.46875 15.6875H23.3438C23.6338 15.6875 23.912 15.8027 24.1171 16.0079C24.3223 16.213 24.4375 16.4912 24.4375 16.7812V32.0938C24.4375 32.3838 24.3223 32.662 24.1171 32.8671C23.912 33.0723 23.6338 33.1875 23.3438 33.1875ZM2.5625 31H22.25V17.875H2.5625V31Z" fill="#333333"/>
<path d="M56.0687 36.4688C55.8999 36.4658 55.734 36.4238 55.5841 36.346C55.4342 36.2682 55.3043 36.1567 55.2047 36.0203L52.0109 31.6453C51.8673 31.4603 51.7867 31.2341 51.7812 31V8.03125C51.7812 7.45109 52.0117 6.89469 52.422 6.48445C52.8322 6.07422 53.3886 5.84375 53.9688 5.84375H58.3438C58.9239 5.84375 59.4803 6.07422 59.8905 6.48445C60.3008 6.89469 60.5312 7.45109 60.5312 8.03125V31C60.5305 31.2417 60.4497 31.4763 60.3016 31.6672L56.9328 36.0422C56.8309 36.1745 56.7001 36.2818 56.5503 36.3558C56.4005 36.4297 56.2358 36.4683 56.0687 36.4688ZM53.9688 30.6391L56.0906 33.5484L58.3438 30.6281V8.03125H53.9688V30.6391Z" fill="#333333"/>
<path d="M58.3438 8.03125H53.9688C53.6787 8.03125 53.4005 7.91602 53.1954 7.7109C52.9902 7.50578 52.875 7.22758 52.875 6.9375V3.65625C52.875 2.78601 53.2207 1.95141 53.8361 1.33606C54.4514 0.720702 55.286 0.375 56.1562 0.375C57.0265 0.375 57.8611 0.720702 58.4764 1.33606C59.0918 1.95141 59.4375 2.78601 59.4375 3.65625V6.9375C59.4375 7.22758 59.3223 7.50578 59.1171 7.7109C58.912 7.91602 58.6338 8.03125 58.3438 8.03125ZM55.0625 5.84375H57.25V3.65625C57.25 3.36617 57.1348 3.08797 56.9296 2.88285C56.7245 2.67773 56.4463 2.5625 56.1562 2.5625C55.8662 2.5625 55.588 2.67773 55.3829 2.88285C55.1777 3.08797 55.0625 3.36617 55.0625 3.65625V5.84375Z" fill="#333333"/>
<path d="M8.03125 26.625C7.38228 26.625 6.74789 26.4326 6.20829 26.072C5.66869 25.7115 5.24812 25.199 4.99977 24.5994C4.75142 23.9999 4.68644 23.3401 4.81305 22.7036C4.93966 22.0671 5.25217 21.4824 5.71106 21.0236C6.16995 20.5647 6.75461 20.2522 7.39111 20.1255C8.02761 19.9989 8.68736 20.0639 9.28693 20.3123C9.8865 20.5606 10.399 20.9812 10.7595 21.5208C11.1201 22.0604 11.3125 22.6948 11.3125 23.3438C11.3125 24.214 10.9668 25.0486 10.3514 25.6639C9.73609 26.2793 8.90149 26.625 8.03125 26.625V26.625ZM8.03125 22.25C7.81493 22.25 7.60346 22.3141 7.4236 22.4343C7.24373 22.5545 7.10354 22.7253 7.02076 22.9252C6.93798 23.1251 6.91632 23.345 6.95852 23.5571C7.00072 23.7693 7.10489 23.9642 7.25785 24.1172C7.41082 24.2701 7.60571 24.3743 7.81787 24.4165C8.03004 24.4587 8.24996 24.437 8.44981 24.3542C8.64967 24.2715 8.82049 24.1313 8.94067 23.9514C9.06085 23.7715 9.125 23.5601 9.125 23.3438C9.125 23.0537 9.00977 22.7755 8.80465 22.5704C8.59953 22.3652 8.32133 22.25 8.03125 22.25Z" fill="#333333"/>
<path d="M18.9688 25.5312H14.5938C14.3037 25.5312 14.0255 25.416 13.8204 25.2109C13.6152 25.0058 13.5 24.7276 13.5 24.4375C13.5 24.1474 13.6152 23.8692 13.8204 23.6641C14.0255 23.459 14.3037 23.3438 14.5938 23.3438H18.9688C19.2588 23.3438 19.537 23.459 19.7421 23.6641C19.9473 23.8692 20.0625 24.1474 20.0625 24.4375C20.0625 24.7276 19.9473 25.0058 19.7421 25.2109C19.537 25.416 19.2588 25.5312 18.9688 25.5312Z" fill="#333333"/>
<path d="M18.9688 28.8125H14.5938C14.3037 28.8125 14.0255 28.6973 13.8204 28.4921C13.6152 28.287 13.5 28.0088 13.5 27.7188C13.5 27.4287 13.6152 27.1505 13.8204 26.9454C14.0255 26.7402 14.3037 26.625 14.5938 26.625H18.9688C19.2588 26.625 19.537 26.7402 19.7421 26.9454C19.9473 27.1505 20.0625 27.4287 20.0625 27.7188C20.0625 28.0088 19.9473 28.287 19.7421 28.4921C19.537 28.6973 19.2588 28.8125 18.9688 28.8125Z" fill="#333333"/>
<path d="M15.6875 13.5C14.8222 13.5 13.9763 13.2434 13.2569 12.7627C12.5374 12.282 11.9767 11.5987 11.6455 10.7992C11.3144 9.99982 11.2278 9.12015 11.3966 8.27148C11.5654 7.42282 11.9821 6.64326 12.5939 6.03141C13.2058 5.41956 13.9853 5.00288 14.834 4.83407C15.6826 4.66526 16.5623 4.7519 17.3617 5.08303C18.1612 5.41416 18.8445 5.97492 19.3252 6.69438C19.8059 7.41385 20.0625 8.25971 20.0625 9.125C20.0625 10.2853 19.6016 11.3981 18.7811 12.2186C17.9606 13.0391 16.8478 13.5 15.6875 13.5ZM15.6875 6.9375C15.2549 6.9375 14.8319 7.0658 14.4722 7.30616C14.1125 7.54653 13.8321 7.88817 13.6665 8.28788C13.5009 8.6876 13.4576 9.12743 13.542 9.55176C13.6264 9.9761 13.8348 10.3659 14.1407 10.6718C14.4466 10.9777 14.8364 11.1861 15.2607 11.2705C15.6851 11.3549 16.1249 11.3116 16.5246 11.146C16.9243 10.9804 17.266 10.7 17.5063 10.3403C17.7467 9.98058 17.875 9.55765 17.875 9.125C17.875 8.54484 17.6445 7.98844 17.2343 7.57821C16.8241 7.16797 16.2677 6.9375 15.6875 6.9375Z" fill="#333333"/>
<path d="M33.1875 8.03125H23.3438C23.0537 8.03125 22.7755 7.91602 22.5704 7.7109C22.3652 7.50578 22.25 7.22758 22.25 6.9375C22.25 6.64742 22.3652 6.36922 22.5704 6.1641C22.7755 5.95898 23.0537 5.84375 23.3438 5.84375H33.1875C33.4776 5.84375 33.7558 5.95898 33.9609 6.1641C34.166 6.36922 34.2812 6.64742 34.2812 6.9375C34.2812 7.22758 34.166 7.50578 33.9609 7.7109C33.7558 7.91602 33.4776 8.03125 33.1875 8.03125Z" fill="#333333"/>
<path d="M28.8125 12.4062H23.3438C23.0537 12.4062 22.7755 12.291 22.5704 12.0859C22.3652 11.8808 22.25 11.6026 22.25 11.3125C22.25 11.0224 22.3652 10.7442 22.5704 10.5391C22.7755 10.334 23.0537 10.2188 23.3438 10.2188H28.8125C29.1026 10.2188 29.3808 10.334 29.5859 10.5391C29.791 10.7442 29.9062 11.0224 29.9062 11.3125C29.9062 11.6026 29.791 11.8808 29.5859 12.0859C29.3808 12.291 29.1026 12.4062 28.8125 12.4062Z" fill="#333333"/>
<path d="M46.3125 11.3125H37.5625C37.2724 11.3125 36.9942 11.1972 36.7891 10.9921C36.584 10.787 36.4688 10.5088 36.4688 10.2187V1.46872C36.4698 1.25279 36.5348 1.042 36.6555 0.862933C36.7762 0.683864 36.9471 0.544522 37.1469 0.462469C37.3461 0.37871 37.5656 0.355827 37.7778 0.396705C37.9899 0.437582 38.1853 0.540391 38.3391 0.692157L47.089 9.44216C47.2408 9.59596 47.3436 9.79128 47.3845 10.0035C47.4254 10.2156 47.4025 10.4352 47.3187 10.6343C47.2367 10.8341 47.0973 11.0051 46.9183 11.1257C46.7392 11.2464 46.5284 11.3114 46.3125 11.3125ZM38.6562 9.12497H43.6765L38.6562 4.10466V9.12497Z" fill="#333333"/>
<path d="M43.0308 48.5C42.8596 48.499 42.691 48.4578 42.5386 48.3797L25.0386 39.6297C24.802 39.4873 24.628 39.2607 24.5515 38.9953C24.4751 38.7299 24.5019 38.4455 24.6265 38.199C24.7511 37.9526 24.9643 37.7624 25.2233 37.6666C25.4824 37.5709 25.7681 37.5767 26.023 37.6828L43.0308 46.1813L60.0386 37.6828C60.1675 37.6053 60.311 37.5551 60.4601 37.5356C60.6092 37.516 60.7608 37.5274 60.9053 37.569C61.0498 37.6106 61.1842 37.6816 61.3001 37.7775C61.4159 37.8735 61.5107 37.9922 61.5786 38.1265C61.6465 38.2607 61.6859 38.4075 61.6945 38.5576C61.7031 38.7078 61.6806 38.8581 61.6284 38.9992C61.5763 39.1403 61.4956 39.2691 61.3914 39.3776C61.2873 39.486 61.1618 39.5719 61.023 39.6297L43.523 48.3797C43.3706 48.4578 43.202 48.499 43.0308 48.5V48.5Z" fill="#333333"/>
<path d="M32.6406 57.25C31.8835 57.25 31.1434 57.0255 30.5138 56.6048C29.8843 56.1842 29.3936 55.5863 29.1039 54.8868C28.8142 54.1873 28.7383 53.4176 28.8861 52.675C29.0338 51.9325 29.3984 51.2504 29.9337 50.715C30.4691 50.1796 31.1512 49.815 31.8938 49.6673C32.6364 49.5196 33.4061 49.5954 34.1056 49.8851C34.8051 50.1749 35.403 50.6656 35.8236 51.2951C36.2442 51.9246 36.4687 52.6647 36.4687 53.4219C36.4687 54.4372 36.0654 55.4109 35.3475 56.1288C34.6296 56.8467 33.6559 57.25 32.6406 57.25V57.25ZM32.6406 51.7813C32.3161 51.7813 31.9989 51.8775 31.7291 52.0577C31.4593 52.238 31.2491 52.4943 31.1249 52.794C31.0007 53.0938 30.9682 53.4237 31.0315 53.7419C31.0948 54.0602 31.2511 54.3525 31.4805 54.582C31.71 54.8114 32.0023 54.9677 32.3206 55.031C32.6388 55.0943 32.9687 55.0618 33.2685 54.9376C33.5682 54.8134 33.8245 54.6032 34.0048 54.3334C34.185 54.0636 34.2813 53.7464 34.2813 53.4219C34.2813 52.9868 34.1084 52.5695 33.8007 52.2618C33.493 51.9541 33.0757 51.7813 32.6406 51.7813Z" fill="#333333"/>
<path d="M49.5938 52.875H39.75C39.4599 52.875 39.1817 52.7598 38.9766 52.5546C38.7715 52.3495 38.6562 52.0713 38.6562 51.7812C38.6562 51.4912 38.7715 51.213 38.9766 51.0079C39.1817 50.8027 39.4599 50.6875 39.75 50.6875H49.5938C49.8838 50.6875 50.162 50.8027 50.3671 51.0079C50.5723 51.213 50.6875 51.4912 50.6875 51.7812C50.6875 52.0713 50.5723 52.3495 50.3671 52.5546C50.162 52.7598 49.8838 52.875 49.5938 52.875Z" fill="#333333"/>
<path d="M45.2188 57.25H39.75C39.4599 57.25 39.1817 57.1348 38.9766 56.9296C38.7715 56.7245 38.6562 56.4463 38.6562 56.1562C38.6562 55.8662 38.7715 55.588 38.9766 55.3829C39.1817 55.1777 39.4599 55.0625 39.75 55.0625H45.2188C45.5088 55.0625 45.787 55.1777 45.9921 55.3829C46.1973 55.588 46.3125 55.8662 46.3125 56.1562C46.3125 56.4463 46.1973 56.7245 45.9921 56.9296C45.787 57.1348 45.5088 57.25 45.2188 57.25Z" fill="#333333"/>
</svg>
