<svg width="80" height="80" viewBox="0 0 80 80" fill="none" xmlns="http://www.w3.org/2000/svg">
<path d="M0.520508 47.532C0.199219 47.7078 0 48.0447 0 48.4099C0 48.7751 0.199219 49.1121 0.520508 49.2869L2.65527 50.4558C4.61719 51.5281 6.22168 53.1326 7.29492 55.0945L8.46289 57.2292C8.6377 57.5505 8.97461 57.7498 9.33984 57.7498C9.70508 57.7498 10.042 57.5505 10.2168 57.2292L11.3857 55.0945C12.458 53.1326 14.0625 51.5281 16.0244 50.4548L18.1592 49.2869C18.4805 49.1121 18.6797 48.7751 18.6797 48.4099C18.6797 48.0447 18.4805 47.7078 18.1592 47.532L16.0244 46.366C14.0615 45.2917 12.457 43.6873 11.3848 41.7253L10.2168 39.5906C9.86719 38.948 8.8125 38.948 8.46289 39.5906L7.29395 41.7253C6.22266 43.6873 4.61816 45.2917 2.65527 46.365L0.520508 47.532ZM3.61426 48.1199C5.91504 46.8621 7.79395 44.9822 9.04883 42.6843L9.33984 42.1531L9.62988 42.6843C10.8857 44.9822 12.7646 46.8621 15.0654 48.1208L15.5957 48.4099L15.0654 48.7C12.7666 49.9568 10.8867 51.8367 9.63086 54.1355L9.33984 54.6667L9.0498 54.1355C7.79297 51.8367 5.91309 49.9568 3.61426 48.7009L3.08398 48.4099L3.61426 48.1199Z" fill="#FBC506"/>
<path d="M79.4795 45.0183L77.3447 43.8503C75.3818 42.7761 73.7773 41.1716 72.7051 39.2107L71.5371 37.0759C71.1875 36.4333 70.1338 36.4333 69.7822 37.0759L68.6162 39.2107C67.543 41.1716 65.9385 42.7761 63.9756 43.8503L61.8408 45.0183C61.5195 45.1931 61.3203 45.53 61.3203 45.8953C61.3203 46.2605 61.5195 46.5974 61.8408 46.7732L63.9756 47.9392C65.9385 49.0134 67.543 50.6179 68.6152 52.5789L69.7822 54.7146C69.958 55.0359 70.2939 55.2351 70.6602 55.2351C71.0254 55.2351 71.3623 55.0359 71.5371 54.7146L72.7061 52.5789C73.7773 50.6179 75.3818 49.0134 77.3447 47.9402L79.4795 46.7732C79.8008 46.5974 80 46.2605 80 45.8953C80 45.53 79.8008 45.1931 79.4795 45.0183ZM76.3857 46.1853C74.0859 47.4431 72.2061 49.322 70.9512 51.6199L70.6602 52.1501L70.3701 51.6199C69.1133 49.322 67.2344 47.4431 64.9346 46.1843L64.4043 45.8953L64.9346 45.6042C67.2344 44.3464 69.1133 42.4675 70.3711 40.1697L70.6602 39.6394L70.9502 40.1697C72.2061 42.4675 74.0859 44.3464 76.3857 45.6042L76.916 45.8953L76.3857 46.1853Z" fill="#FBC506"/>
<path d="M79.4795 14.2439L77.5273 13.1765C75.748 12.2029 74.293 10.7478 73.3193 8.96851L72.252 7.01733C71.9023 6.37476 70.8477 6.37476 70.498 7.01733L69.4307 8.96851C68.457 10.7478 67.002 12.2029 65.2227 13.1765L63.2705 14.2439C62.9492 14.4187 62.75 14.7556 62.75 15.1208C62.75 15.4861 62.9492 15.823 63.2695 15.9978L65.2227 17.0662C67.002 18.0398 68.457 19.4949 69.4307 21.2742L70.498 23.2253C70.6729 23.5466 71.0098 23.7458 71.375 23.7458C71.7402 23.7458 72.0771 23.5466 72.252 23.2253L73.3193 21.2742C74.293 19.4949 75.748 18.0398 77.5283 17.0662L79.4805 15.9978C79.8008 15.823 80 15.4861 80 15.1208C80 14.7556 79.8008 14.4187 79.4795 14.2439ZM76.5684 15.3123C74.4531 16.4685 72.7227 18.198 71.5654 20.3152L71.375 20.6619L71.1846 20.3152C70.0273 18.198 68.2969 16.4685 66.1826 15.3123L65.834 15.1208L66.1816 14.9304C68.2969 13.7742 70.0273 12.0447 71.1846 9.92749L71.375 9.58081L71.5654 9.92749C72.7227 12.0447 74.4531 13.7742 76.5684 14.9304L76.916 15.1208L76.5684 15.3123Z" fill="#FBC506"/>
<path d="M57.6086 10.9167C58.9309 10.9167 60.1926 10.4392 61.1936 9.55346C61.1936 9.55249 61.1936 9.55249 61.1936 9.55249C63.4377 7.56421 63.6555 4.10913 61.6789 1.85229C60.719 0.75659 59.3918 0.102293 57.9426 0.0104957C56.4885 -0.0783715 55.0969 0.399168 54.008 1.36401C51.7629 3.35229 51.5451 6.80639 53.5227 9.06421C54.4817 10.1599 55.8088 10.8142 57.259 10.906C57.3762 10.9128 57.4924 10.9167 57.6086 10.9167ZM55.3342 2.86108C55.966 2.30151 56.7619 1.99975 57.5959 1.99975C57.6692 1.99975 57.7424 2.00171 57.8157 2.00659C58.7307 2.06421 59.5686 2.47827 60.175 3.17065C61.4289 4.60229 61.2912 6.7937 59.8674 8.05542C59.1799 8.66479 58.2971 8.97436 57.386 8.90991C56.4709 8.85229 55.633 8.43823 55.0266 7.74585C53.7727 6.31421 53.9104 4.1228 55.3342 2.86108Z" fill="#FBC506"/>
<path d="M6.58348 25.5671C4.33934 27.5554 4.12156 31.0095 6.09813 33.2683C7.05711 34.363 8.38426 35.0173 9.83348 35.1091C9.95067 35.1169 10.0669 35.1208 10.1831 35.1208C11.5063 35.1208 12.768 34.6423 13.769 33.7565C13.769 33.7556 13.769 33.7556 13.769 33.7556C16.0132 31.7673 16.2309 28.3132 14.2544 26.0554C13.2944 24.9597 11.9673 24.3054 10.518 24.2136C9.06688 24.1286 7.67235 24.6023 6.58348 25.5671ZM12.4429 32.2585C11.7554 32.8679 10.8667 33.1716 9.96043 33.113C9.04539 33.0554 8.20848 32.6423 7.60301 31.9509C6.34813 30.5173 6.48582 28.3259 7.90965 27.0642C8.54149 26.5046 9.33739 26.2028 10.1714 26.2028C10.2446 26.2028 10.3179 26.2048 10.3911 26.2097C11.3061 26.2673 12.144 26.6814 12.7495 27.3728C14.0034 28.8054 13.8657 30.9978 12.4429 32.2585Z" fill="#FBC506"/>
<path d="M8.48021 4.74792C7.0388 4.64831 5.65696 5.13269 4.57786 6.09069C2.35228 8.06237 2.13646 11.4872 4.09739 13.7264C5.04856 14.8133 6.36497 15.4618 7.80345 15.5526C7.91868 15.5604 8.03392 15.5633 8.14915 15.5633C9.46067 15.5633 10.7116 15.0897 11.7038 14.2098C13.9304 12.2382 14.1462 8.81335 12.1853 6.57409C11.2341 5.48718 9.91771 4.83874 8.48021 4.74792ZM10.3777 12.7128C10.3777 12.7137 10.3777 12.7137 10.3777 12.7137C9.69993 13.3153 8.82981 13.6219 7.92942 13.5565C7.02708 13.4999 6.19993 13.0917 5.6013 12.4081C4.36399 10.995 4.49974 8.8319 5.90403 7.58679C6.52806 7.03503 7.31321 6.73718 8.13646 6.73718C8.20872 6.73718 8.28099 6.73913 8.35325 6.74401C9.25657 6.80065 10.0827 7.20886 10.6814 7.89245C11.9187 9.30554 11.7829 11.4686 10.3777 12.7128Z" fill="#FBC506"/>
<path d="M38.6529 7.78971C28.0122 8.486 19.356 17.8151 18.9468 29.028C18.7281 34.9967 20.7378 40.6803 24.607 45.0299C27.6302 48.43 29.3153 51.2283 29.4693 55.8073H27.9673C25.8013 55.8073 24.0386 57.57 24.0386 59.736C24.0386 61.5092 25.2275 62.9938 26.8443 63.4804V68.7907C26.8443 70.7565 28.4429 72.3561 30.4087 72.3561H30.5796V75.4245C30.5796 77.9469 32.6324 79.9997 35.1548 79.9997H44.8433C47.3658 79.9997 49.4185 77.9469 49.4185 75.4245V72.3561H49.5894C51.5552 72.3561 53.1548 70.7565 53.1548 68.7907V63.4804C54.7713 62.9938 55.9595 61.5091 55.9595 59.736C55.9595 57.57 54.1978 55.8073 52.0318 55.8073H50.5639C50.6792 51.2378 52.3098 48.5214 55.4439 44.9723C59.0708 40.8639 61.0679 35.5124 61.0679 29.902C61.0679 23.5876 58.4947 17.5553 54.0083 13.3532C49.7827 9.39323 44.3228 7.42155 38.6529 7.78971ZM47.4185 75.4245C47.4185 76.8444 46.2632 77.9997 44.8433 77.9997H35.1548C33.7349 77.9997 32.5796 76.8444 32.5796 75.4245V72.3561H47.4185V75.4245V75.4245ZM49.5894 70.3561H30.4087C29.5464 70.3561 28.8443 69.654 28.8443 68.7907V63.6637H51.1548V68.7907C51.1548 69.654 50.4527 70.3561 49.5894 70.3561ZM53.9595 59.736C53.9595 60.7985 53.0943 61.6637 52.0318 61.6637H27.9673C26.9038 61.6637 26.0386 60.7985 26.0386 59.736C26.0386 58.6725 26.9038 57.8073 27.9673 57.8073H52.0318C53.0943 57.8073 53.9595 58.6725 53.9595 59.736ZM37.9408 55.8073L36.4083 36.5915H43.5908L42.0583 55.8073H37.9408ZM59.0679 29.902C59.0679 35.0241 57.2486 39.9059 53.9439 43.6481C50.5528 47.4901 48.6823 50.6241 48.5643 55.8073H44.065L45.5975 36.5915H48.4185C48.9712 36.5915 49.4185 36.1442 49.4185 35.5915C49.4185 35.0387 48.9712 34.5915 48.4185 34.5915H45.7571L45.9966 31.5876C46.0406 31.0378 45.6294 30.5553 45.0786 30.5114C44.5464 30.4714 44.0464 30.8796 44.0025 31.4294L43.7503 34.5915H36.2488L35.9966 31.4294C35.9527 30.8796 35.4663 30.4704 34.9204 30.5114C34.3697 30.5553 33.9585 31.0378 34.0025 31.5876L34.242 34.5915H31.5796C31.0269 34.5915 30.5796 35.0387 30.5796 35.5915C30.5796 36.1442 31.0269 36.5915 31.5796 36.5915H34.4016L35.9341 55.8073H31.4688C31.3106 50.6122 29.3766 47.3843 26.1011 43.7018C22.5767 39.738 20.7456 34.5534 20.9449 29.1003C21.3179 18.9001 29.1538 10.4157 38.7837 9.78581C43.9048 9.45866 48.8238 11.237 52.6411 14.8122C56.7251 18.6383 59.0679 24.1383 59.0679 29.902Z" fill="#FBC506"/>
</svg>
