<svg width="123" height="112" viewBox="0 0 123 112" fill="none" xmlns="http://www.w3.org/2000/svg">
<path d="M39.4019 73.5908H13.6264C12.5314 73.5908 11.6426 72.702 11.6426 71.6069C11.6426 70.5118 12.5314 69.623 13.6264 69.623H39.4019C40.497 69.623 41.3858 70.5118 41.3858 71.6069C41.3858 72.702 40.498 73.5908 39.4019 73.5908Z" fill="#27AE60"/>
<path d="M39.4019 63.5542H13.6264C12.5314 63.5542 11.6426 62.6654 11.6426 61.5703C11.6426 60.4752 12.5314 59.5864 13.6264 59.5864H39.4019C40.497 59.5864 41.3858 60.4752 41.3858 61.5703C41.3858 62.6654 40.498 63.5542 39.4019 63.5542Z" fill="#27AE60"/>
<path d="M46.3792 83.2041H36.562C35.4669 83.2041 34.5781 82.3153 34.5781 81.2202C34.5781 80.1251 35.4669 79.2363 36.562 79.2363H46.3792C47.4743 79.2363 48.3631 80.1251 48.3631 81.2202C48.3631 82.3153 47.4743 83.2041 46.3792 83.2041Z" fill="#27AE60"/>
<path d="M32.4355 53.872H13.6264C12.5314 53.872 11.6426 52.9833 11.6426 51.8882C11.6426 50.7931 12.5314 49.9043 13.6264 49.9043H32.4355C33.5306 49.9043 34.4194 50.7931 34.4194 51.8882C34.4194 52.9833 33.5316 53.872 32.4355 53.872Z" fill="#27AE60"/>
<path d="M24.0582 44.1081H13.9712C12.8761 44.1081 11.9873 43.2193 11.9873 42.1243V32.1841C11.9873 31.089 12.8761 30.2002 13.9712 30.2002H24.0582C25.1533 30.2002 26.042 31.089 26.042 32.1841V42.1243C26.042 43.2203 25.1543 44.1081 24.0582 44.1081ZM15.955 40.1404H22.0743V34.1679H15.955V40.1404Z" fill="#27AE60"/>
<path d="M44.7151 59.9048C44.2608 59.9048 43.8174 59.7491 43.4603 59.4575C43.0149 59.0934 42.7491 58.5538 42.7322 57.9785L42.5507 51.6807C42.5368 51.2085 42.6915 50.7483 42.9871 50.3803L58.6498 30.8996C59.3302 30.0545 60.5632 29.9107 61.4183 30.5802L68.0751 35.7859C68.4947 36.1142 68.7645 36.5963 68.8241 37.125C68.8836 37.6537 68.7288 38.1844 68.3936 38.598L52.6158 58.0638C52.3133 58.4358 51.8868 58.6867 51.4146 58.7691L45.0543 59.8751C44.9412 59.8949 44.8272 59.9048 44.7151 59.9048ZM51.0744 56.8149H51.0843H51.0744ZM46.5373 52.2967L46.6315 55.574L50.0011 54.9878L64.04 37.6686L60.5146 34.912L46.5373 52.2967Z" fill="#27AE60"/>
<path d="M88.3282 104.743H76.9516C75.8565 104.743 74.9678 103.855 74.9678 102.76V10.9956C74.9678 9.90049 75.8565 9.01172 76.9516 9.01172H88.3282C89.4233 9.01172 90.312 9.90049 90.312 10.9956C90.312 12.0907 89.4233 12.9795 88.3282 12.9795H78.9355V100.776H88.3282C89.4233 100.776 90.312 101.664 90.312 102.76C90.312 103.855 89.4242 104.743 88.3282 104.743Z" fill="#27AE60"/>
<path d="M88.3278 57.935H67.2729C66.1778 57.935 65.2891 57.0463 65.2891 55.9512C65.2891 54.8561 66.1778 53.9673 67.2729 53.9673H88.3278C89.4229 53.9673 90.3116 54.8561 90.3116 55.9512C90.3116 57.0463 89.4238 57.935 88.3278 57.935Z" fill="#27AE60"/>
<path d="M121.016 19.8929H98.5591C97.464 19.8929 96.5752 19.0041 96.5752 17.909V2.38719C96.5752 1.29209 97.464 0.40332 98.5591 0.40332H121.016C122.112 0.40332 123 1.29209 123 2.38719V17.909C123 19.0041 122.112 19.8929 121.016 19.8929ZM100.543 15.9251H119.033V4.37106H100.543V15.9251Z" fill="#27AE60"/>
<path d="M121.016 66.6565H98.5591C97.464 66.6565 96.5752 65.7678 96.5752 64.6727V49.1509C96.5752 48.0558 97.464 47.167 98.5591 47.167H121.016C122.112 47.167 123 48.0558 123 49.1509V64.6727C123 65.7678 122.112 66.6565 121.016 66.6565ZM100.543 62.6888H119.033V51.1347H100.543V62.6888Z" fill="#27AE60"/>
<path d="M121.016 111.5H98.5591C97.464 111.5 96.5752 110.611 96.5752 109.516V93.9941C96.5752 92.899 97.464 92.0103 98.5591 92.0103H121.016C122.112 92.0103 123 92.899 123 93.9941V109.516C123 110.611 122.112 111.5 121.016 111.5ZM100.543 107.532H119.033V95.978H100.543V107.532Z" fill="#27AE60"/>
<path d="M55.0296 93.2413H1.98387C0.888774 93.2413 0 92.3525 0 91.2574V22.6363C0 22.1086 0.21029 21.6027 0.583258 21.2307C0.956226 20.8587 1.4393 20.6088 1.99081 20.6524C9.14267 20.6802 18.817 20.7079 28.4914 20.7357C38.1667 20.7635 47.842 20.7913 54.9959 20.819C56.087 20.823 56.9698 21.7078 56.9718 22.7989C56.9758 24.6082 56.9807 30.7225 56.9857 38.6005C56.9857 39.0538 56.832 39.4922 56.5483 39.8454L46.5367 52.2971L46.6309 55.5745L50.0005 54.9882L53.4683 50.71C53.997 50.0563 54.8798 49.8084 55.6714 50.0891C56.463 50.3698 56.9926 51.1177 56.9936 51.9579L57.0135 91.2564C57.0135 91.7831 56.8052 92.288 56.4332 92.66C56.0612 93.032 55.5563 93.2413 55.0296 93.2413ZM3.96774 89.2735H53.0447L53.0289 57.5534L52.6152 58.0642C52.3127 58.4362 51.8862 58.6872 51.414 58.7695L45.0537 59.8755C44.4863 59.9747 43.905 59.822 43.4587 59.4579C43.0133 59.0939 42.7475 58.5543 42.7306 57.9789L42.5491 51.6811C42.5352 51.209 42.6899 50.7487 42.9855 50.3807L53.017 37.9041C53.013 32.2055 53.01 27.4968 53.0061 24.7808C46.1002 24.755 37.2898 24.7302 28.4785 24.7045C19.676 24.6787 10.8716 24.6529 3.96774 24.6271V89.2735ZM51.0738 56.8154H51.0837H51.0738Z" fill="#27AE60"/>
</svg>
