<svg width="66" height="62" viewBox="0 0 66 62" fill="none" xmlns="http://www.w3.org/2000/svg">
<path d="M64.7188 6.93751H60.3438V9.12501H63.625V40.8438H57.0625C56.7724 40.8438 56.4942 40.959 56.2891 41.1641C56.084 41.3692 55.9688 41.6474 55.9688 41.9375V48.5H40.6562V50.6875H57.0625C57.3525 50.6868 57.6304 50.5717 57.8358 50.367L65.4921 42.7108C65.5835 42.6179 65.6576 42.5093 65.7108 42.3903C65.7261 42.3564 65.7349 42.3236 65.7469 42.2886C65.7784 42.1967 65.7975 42.1011 65.8038 42.0042C65.8038 41.9813 65.8169 41.9605 65.8169 41.9375V8.03126C65.8169 7.88726 65.7885 7.74467 65.7332 7.61169C65.678 7.4787 65.597 7.35793 65.495 7.25631C65.393 7.15469 65.2719 7.07421 65.1387 7.01951C65.0055 6.9648 64.8628 6.93693 64.7188 6.93751ZM58.1563 46.9534V43.0313H62.0785L58.1563 46.9534Z" fill="#333333"/>
<path d="M4.5625 50.6875H11.125V48.5H4.5625C3.98234 48.5 3.42594 48.2695 3.0157 47.8593C2.60547 47.4491 2.375 46.8927 2.375 46.3125C2.375 45.7323 2.60547 45.1759 3.0157 44.7657C3.42594 44.3555 3.98234 44.125 4.5625 44.125H7.84375C8.13383 44.125 8.41203 44.0098 8.61715 43.8046C8.82227 43.5995 8.9375 43.3213 8.9375 43.0312V9.125H46.125V6.9375H8.9375V1.46875C8.9375 1.17867 8.82227 0.90047 8.61715 0.695352C8.41203 0.490234 8.13383 0.375 7.84375 0.375H4.5625C3.40218 0.375 2.28938 0.835936 1.46891 1.65641C0.648436 2.47688 0.1875 3.58968 0.1875 4.75V46.3125C0.1875 47.4728 0.648436 48.5856 1.46891 49.4061C2.28938 50.2266 3.40218 50.6875 4.5625 50.6875ZM2.375 4.75C2.375 4.16984 2.60547 3.61344 3.0157 3.2032C3.42594 2.79297 3.98234 2.5625 4.5625 2.5625H6.75V41.9375H4.5625C3.79421 41.9363 3.03937 42.139 2.375 42.5248V4.75Z" fill="#333333"/>
<path d="M48.3125 1.46875V36.4688C48.3125 36.7588 48.4277 37.037 48.6329 37.2421C48.838 37.4473 49.1162 37.5625 49.4062 37.5625H57.0625C57.3526 37.5625 57.6308 37.4473 57.8359 37.2421C58.041 37.037 58.1562 36.7588 58.1562 36.4688V1.46875C58.1562 1.17867 58.041 0.90047 57.8359 0.695352C57.6308 0.490234 57.3526 0.375 57.0625 0.375H49.4062C49.1162 0.375 48.838 0.490234 48.6329 0.695352C48.4277 0.90047 48.3125 1.17867 48.3125 1.46875ZM55.9688 2.5625V35.375H50.5V33.1875H52.6875V31H50.5V28.8125H52.6875V26.625H50.5V24.4375H52.6875V22.25H50.5V20.0625H52.6875V17.875H50.5V15.6875H52.6875V13.5H50.5V11.3125H52.6875V9.125H50.5V6.9375H52.6875V4.75H50.5V2.5625H55.9688Z" fill="#333333"/>
<path d="M13.9873 27.8019C13.7875 27.8847 13.6168 28.025 13.4966 28.2048C13.3765 28.3847 13.3124 28.5962 13.3125 28.8125V60.5313C13.3125 60.8214 13.4277 61.0996 13.6329 61.3047C13.838 61.5098 14.1162 61.625 14.4063 61.625H46.125C46.3413 61.625 46.5527 61.5608 46.7325 61.4406C46.9124 61.3204 47.0525 61.1496 47.1353 60.9498C47.218 60.75 47.2397 60.5301 47.1975 60.318C47.1553 60.1058 47.0512 59.911 46.8983 59.758L15.1795 28.0392C15.0266 27.8862 14.8317 27.7819 14.6194 27.7397C14.4072 27.6974 14.1873 27.7191 13.9873 27.8019V27.8019ZM15.5 31.4528L43.4847 59.4375H15.5V31.4528Z" fill="#333333"/>
<path d="M33.7733 54.2892L20.6483 41.1642C20.4953 41.0113 20.3005 40.9072 20.0883 40.865C19.8762 40.8228 19.6563 40.8445 19.4565 40.9272C19.2566 41.01 19.0858 41.1502 18.9657 41.33C18.8455 41.5098 18.7813 41.7212 18.7812 41.9375V55.0625C18.7812 55.3526 18.8965 55.6308 19.1016 55.8359C19.3067 56.041 19.5849 56.1563 19.875 56.1563H33C33.2163 56.1562 33.4277 56.0921 33.6075 55.9719C33.7874 55.8517 33.9275 55.6809 34.0103 55.4811C34.093 55.2812 34.1147 55.0613 34.0725 54.8492C34.0303 54.6371 33.9262 54.4422 33.7733 54.2892V54.2892ZM20.9688 53.9688V44.5778L30.3597 53.9688H20.9688Z" fill="#333333"/>
<path d="M41.4295 44.8983L43.617 42.7108C43.8222 42.5057 43.9374 42.2276 43.9375 41.9375V17.875C43.9375 17.0048 43.5918 16.1702 42.9764 15.5548C42.3611 14.9395 41.5265 14.5938 40.6562 14.5938C39.786 14.5938 38.9514 14.9395 38.3361 15.5548C37.7207 16.1702 37.375 17.0048 37.375 17.875V41.9375C37.3751 42.2276 37.4903 42.5057 37.6955 42.7108L39.883 44.8983C40.0881 45.1033 40.3662 45.2185 40.6562 45.2185C40.9463 45.2185 41.2244 45.1033 41.4295 44.8983V44.8983ZM40.6562 16.7813C40.9463 16.7813 41.2245 16.8965 41.4296 17.1016C41.6348 17.3067 41.75 17.5849 41.75 17.875V18.9688H39.5625V17.875C39.5625 17.5849 39.6777 17.3067 39.8829 17.1016C40.088 16.8965 40.3662 16.7813 40.6562 16.7813ZM39.5625 41.4847V21.1563H41.75V41.4847L40.6562 42.5784L39.5625 41.4847Z" fill="#333333"/>
<path d="M25.3438 23.3438H31.9062C32.1963 23.3438 32.4745 23.2285 32.6796 23.0234C32.8848 22.8183 33 22.5401 33 22.25V15.6875C33 15.3974 32.8848 15.1192 32.6796 14.9141C32.4745 14.709 32.1963 14.5938 31.9062 14.5938H24.25C23.0897 14.5938 21.9769 15.0547 21.1564 15.8752C20.3359 16.6956 19.875 17.8084 19.875 18.9688C19.875 20.1291 20.3359 21.2419 21.1564 22.0623C21.9769 22.8828 23.0897 23.3438 24.25 23.3438H25.3438ZM30.8125 16.7812V21.1562H26.4375V16.7812H30.8125ZM22.0625 18.9688C22.0625 18.3886 22.293 17.8322 22.7032 17.422C23.1134 17.0117 23.6698 16.7812 24.25 16.7812V21.1562C23.6698 21.1562 23.1134 20.9258 22.7032 20.5155C22.293 20.1053 22.0625 19.5489 22.0625 18.9688Z" fill="#333333"/>
</svg>
