<svg width="93" height="88" viewBox="0 0 93 88" fill="none" xmlns="http://www.w3.org/2000/svg">
<path d="M59.375 61.6006C57.8298 61.6006 56.3194 62.0588 55.0346 62.9172C53.7499 63.7757 52.7485 64.9958 52.1572 66.4234C51.5659 67.8509 51.4112 69.4218 51.7126 70.9372C52.0141 72.4527 52.7581 73.8448 53.8507 74.9374C54.9433 76.03 56.3354 76.774 57.8509 77.0755C59.3663 77.3769 60.9372 77.2222 62.3647 76.6309C63.7923 76.0396 65.0124 75.0382 65.8709 73.7535C66.7293 72.4687 67.1875 70.9583 67.1875 69.4131C67.185 67.3418 66.3611 65.3561 64.8965 63.8916C63.4319 62.427 61.4462 61.6031 59.375 61.6006ZM59.375 74.1006C58.4479 74.1006 57.5416 73.8257 56.7708 73.3106C55.9999 72.7955 55.3991 72.0634 55.0443 71.2069C54.6895 70.3504 54.5967 69.4079 54.7776 68.4986C54.9584 67.5893 55.4049 66.7541 56.0604 66.0985C56.716 65.443 57.5512 64.9965 58.4605 64.8157C59.3698 64.6348 60.3123 64.7276 61.1688 65.0824C62.0254 65.4372 62.7574 66.038 63.2725 66.8089C63.7876 67.5797 64.0625 68.486 64.0625 69.4131C64.0625 70.6563 63.5686 71.8486 62.6896 72.7276C61.8105 73.6067 60.6182 74.1006 59.375 74.1006Z" fill="#FF88C1"/>
<path d="M62.5 52.2256C62.5 53.7708 62.9582 55.2812 63.8166 56.566C64.6751 57.8507 65.8952 58.8521 67.3228 59.4434C68.7503 60.0347 70.3212 60.1894 71.8366 59.888C73.3521 59.5865 74.7442 58.8425 75.8368 57.7499C76.9294 56.6573 77.6734 55.2652 77.9749 53.7497C78.2763 52.2343 78.1216 50.6634 77.5303 49.2359C76.939 47.8083 75.9377 46.5882 74.6529 45.7297C73.3681 44.8713 71.8577 44.4131 70.3125 44.4131C68.2413 44.4156 66.2556 45.2395 64.791 46.7041C63.3264 48.1686 62.5025 50.1543 62.5 52.2256ZM70.3125 47.5381C71.2396 47.5381 72.1459 47.813 72.9167 48.3281C73.6876 48.8431 74.2884 49.5752 74.6432 50.4318C74.998 51.2883 75.0908 52.2308 74.9099 53.1401C74.7291 54.0494 74.2826 54.8846 73.6271 55.5401C72.9715 56.1957 72.1363 56.6421 71.227 56.823C70.3177 57.0039 69.3752 56.9111 68.5187 56.5563C67.6621 56.2015 66.9301 55.6007 66.415 54.8298C65.8999 54.059 65.625 53.1527 65.625 52.2256C65.625 50.9824 66.1189 49.7901 66.9979 48.911C67.877 48.0319 69.0693 47.5381 70.3125 47.5381Z" fill="#FF88C1"/>
<path d="M39.0625 63.1631C37.5173 63.1631 36.0069 63.6213 34.7221 64.4797C33.4374 65.3382 32.436 66.5583 31.8447 67.9859C31.2534 69.4134 31.0987 70.9843 31.4001 72.4997C31.7016 74.0152 32.4456 75.4073 33.5382 76.4999C34.6308 77.5925 36.0229 78.3365 37.5384 78.638C39.0538 78.9394 40.6247 78.7847 42.0522 78.1934C43.4798 77.6021 44.6999 76.6007 45.5584 75.316C46.4168 74.0312 46.875 72.5208 46.875 70.9756C46.8725 68.9043 46.0486 66.9186 44.584 65.4541C43.1194 63.9895 41.1337 63.1656 39.0625 63.1631ZM39.0625 75.6631C38.1354 75.6631 37.2291 75.3882 36.4583 74.8731C35.6874 74.358 35.0866 73.6259 34.7318 72.7694C34.377 71.9129 34.2842 70.9704 34.4651 70.0611C34.6459 69.1518 35.0924 68.3166 35.7479 67.661C36.4035 67.0055 37.2387 66.559 38.148 66.3782C39.0573 66.1973 39.9998 66.2901 40.8563 66.6449C41.7129 66.9997 42.445 67.6005 42.96 68.3714C43.4751 69.1422 43.75 70.0485 43.75 70.9756C43.75 72.2188 43.2561 73.4111 42.3771 74.2901C41.498 75.1692 40.3057 75.6631 39.0625 75.6631Z" fill="#FF88C1"/>
<path d="M25 49.1006C23.4548 49.1006 21.9444 49.5588 20.6596 50.4172C19.3749 51.2757 18.3735 52.4958 17.7822 53.9234C17.1909 55.3509 17.0362 56.9218 17.3376 58.4372C17.6391 59.9527 18.3831 61.3448 19.4757 62.4374C20.5683 63.53 21.9604 64.274 23.4759 64.5755C24.9913 64.8769 26.5622 64.7222 27.9897 64.1309C29.4173 63.5396 30.6374 62.5382 31.4959 61.2535C32.3543 59.9687 32.8125 58.4583 32.8125 56.9131C32.81 54.8418 31.9861 52.8561 30.5215 51.3916C29.0569 49.927 27.0712 49.1031 25 49.1006ZM25 61.6006C24.0729 61.6006 23.1666 61.3257 22.3958 60.8106C21.6249 60.2955 21.0241 59.5634 20.6693 58.7069C20.3145 57.8504 20.2217 56.9079 20.4026 55.9986C20.5834 55.0893 21.0299 54.2541 21.6854 53.5985C22.341 52.943 23.1762 52.4965 24.0855 52.3157C24.9948 52.1348 25.9373 52.2276 26.7938 52.5824C27.6504 52.9372 28.3825 53.538 28.8975 54.3089C29.4126 55.0797 29.6875 55.986 29.6875 56.9131C29.6875 58.1563 29.1936 59.3486 28.3146 60.2276C27.4355 61.1067 26.2432 61.6006 25 61.6006Z" fill="#FF88C1"/>
<path d="M23.4375 44.4131C24.9827 44.4131 26.4931 43.9549 27.7779 43.0964C29.0627 42.238 30.064 41.0179 30.6553 39.5903C31.2466 38.1628 31.4013 36.5919 31.0999 35.0764C30.7984 33.561 30.0544 32.1689 28.9618 31.0763C27.8692 29.9837 26.4771 29.2397 24.9616 28.9382C23.4462 28.6368 21.8753 28.7915 20.4478 29.3828C19.0202 29.9741 17.8001 30.9754 16.9416 32.2602C16.0832 33.545 15.625 35.0554 15.625 36.6006C15.6275 38.6718 16.4514 40.6575 17.916 42.1221C19.3806 43.5867 21.3663 44.4106 23.4375 44.4131ZM23.4375 31.9131C24.3646 31.9131 25.2709 32.188 26.0417 32.7031C26.8126 33.2181 27.4134 33.9502 27.7682 34.8068C28.123 35.6633 28.2158 36.6058 28.0349 37.5151C27.8541 38.4244 27.4076 39.2596 26.7521 39.9152C26.0965 40.5707 25.2613 41.0172 24.352 41.198C23.4427 41.3789 22.5002 41.2861 21.6437 40.9313C20.7871 40.5765 20.0551 39.9757 19.54 39.2048C19.0249 38.434 18.75 37.5277 18.75 36.6006C18.75 35.3574 19.2439 34.1651 20.1229 33.286C21.002 32.4069 22.1943 31.9131 23.4375 31.9131Z" fill="#FF88C1"/>
<path d="M54.5984 27.6362C54.3054 27.3433 53.9081 27.1787 53.4938 27.1787C53.0794 27.1787 52.6821 27.3433 52.3891 27.6362L50.4797 29.5471C45.9266 28.2315 42.7 25.4659 39.5906 22.7659C35.7531 19.4331 32.1281 16.2878 26.5625 16.2878C14.4141 16.2878 6.25 28.2174 6.25 45.9753C6.25 65.6628 20.4875 86.6003 46.875 86.6003C73.5453 86.6003 87.5 70.8784 87.5 55.3503C87.5 42.8612 81.5312 34.9799 69.7609 31.8768L92.2047 7.7065C92.48 7.41007 92.6296 7.01842 92.622 6.61393C92.6144 6.20945 92.4503 5.82367 92.1641 5.53775L87.7453 1.12057C87.4595 0.83481 87.074 0.670936 86.6699 0.663361C86.2658 0.655785 85.8745 0.805099 85.5781 1.07994L55.7437 28.7815L54.5984 27.6362ZM53.4938 30.9503L62.3344 39.7893L60.1234 42.0003L58.9891 40.8643L52.4266 34.3018L51.2906 33.1674L53.4938 30.9503ZM50.5984 36.8878L52.3891 38.6799L46.8656 44.2096L49.075 46.419L54.5984 40.894L56.3922 42.6862C56.4606 43.5752 56.3357 44.4685 56.0261 45.3046C55.7165 46.1408 55.2294 46.8999 54.5984 47.5299C49.9641 52.1659 43.4781 52.6331 40.6297 52.6596C40.6156 49.8815 41.1234 43.3268 45.7609 38.6909C46.3899 38.0601 47.1479 37.5728 47.9829 37.2623C48.8179 36.9519 49.7101 36.8257 50.5984 36.8924V36.8878ZM84.375 55.3503C84.375 73.8143 65.5109 83.4753 46.875 83.4753C19.5563 83.4753 9.375 60.4737 9.375 45.9753C9.375 30.0878 16.2828 19.4128 26.5625 19.4128C30.9609 19.4128 34.0125 22.0596 37.5422 25.1253C40.5769 28.0502 44.1261 30.3889 48.0109 32.0237L47.9781 32.0549C47.7212 32.3164 47.5657 32.6608 47.5396 33.0264C47.5136 33.3921 47.6186 33.755 47.8359 34.0503C46.2148 34.4562 44.7341 35.2943 43.5516 36.4753C36.4719 43.5549 37.5297 53.8877 37.5781 54.3237C37.6172 54.6766 37.7752 55.0057 38.0263 55.2568C38.2774 55.5078 38.6065 55.6659 38.9594 55.7049C39.5826 55.7643 40.2084 55.7919 40.8344 55.7878C44.2172 55.7878 51.4453 55.094 56.8031 49.7331C57.9831 48.5532 58.8207 47.0751 59.2266 45.4565C59.484 45.6514 59.796 45.7607 60.1188 45.769C60.3242 45.7692 60.5276 45.7288 60.7175 45.6503C60.9073 45.5717 61.0798 45.4565 61.225 45.3112L65.6438 40.8909C65.9367 40.5979 66.1012 40.2005 66.1012 39.7862C66.1012 39.3719 65.9367 38.9745 65.6438 38.6815L64.4984 37.5362L67.3109 34.5128C78.7797 36.9581 84.375 43.7737 84.375 55.3503ZM86.6016 4.394L88.8906 6.68307L62.2922 35.3284L57.9547 30.9924L86.6016 4.394Z" fill="#FF88C1"/>
<path d="M72.3921 4.18911L56.7666 18.252L58.8571 20.5748L74.4826 6.51192L72.3921 4.18911Z" fill="#FF88C1"/>
<path d="M76.8724 -0.000233556L74.6504 1.99902L76.7406 4.32212L78.9626 2.32286L76.8724 -0.000233556Z" fill="#FF88C1"/>
<path d="M0 45.9752C0 46.0252 1.28057e-07 47.2377 0.178125 49.2377L3.29062 48.9627C3.125 47.1143 3.125 45.9861 3.125 45.9736L0 45.9752Z" fill="#FF88C1"/>
<path d="M0.549805 52.4439C1.68574 60.4408 4.76855 71.6955 12.9576 79.8924C13.491 80.4247 14.0368 80.9356 14.5951 81.4252L16.6545 79.0814C16.1482 78.6377 15.6524 78.1736 15.167 77.6893C7.1873 69.6939 4.52012 58.1658 3.64355 52.0049L0.549805 52.4439Z" fill="#FF88C1"/>
<path d="M89.1285 66.3398C87.9539 70.5456 85.7192 74.3793 82.6383 77.4738C79.5575 80.5684 75.7337 82.8201 71.5332 84.0133L71.8754 85.5383L72.2145 87.0648C76.9568 85.7488 81.2799 83.2329 84.7669 79.7598C88.254 76.2867 90.7872 71.9737 92.1223 67.2367L89.1285 66.3398Z" fill="#FF88C1"/>
</svg>
