<svg width="105" height="110" viewBox="0 0 105 110" fill="none" xmlns="http://www.w3.org/2000/svg">
<path d="M16.4336 48.571C20.9898 36.2279 36.2388 28.9822 53.3364 28.9822C70.434 28.9822 85.6829 36.2279 90.2391 48.571C93.7851 58.1773 92.4903 64.5122 90.1413 76.0055C90.1047 76.1842 90.0679 76.3641 90.0309 76.5454C88.7893 82.6237 86.9179 89.1427 84.7391 94.3897C83.6476 97.0184 82.5325 99.1967 81.459 100.804C80.315 102.517 79.5325 103.103 79.2945 103.222C79.3039 103.217 79.2953 103.22 79.2661 103.229C79.127 103.272 78.5206 103.458 77.1782 103.673C75.7338 103.905 73.8479 104.11 71.6108 104.279C67.1479 104.616 61.5568 104.788 55.8487 104.788C50.1435 104.788 44.4035 104.616 39.6466 104.277C34.6477 103.921 31.3832 103.418 30.1737 102.986C29.6851 102.811 28.5095 101.996 26.8536 99.7245C25.3118 97.6092 23.7756 94.8218 22.3442 91.7593C19.4845 85.6409 17.3431 79.0771 16.5668 76.2305C14.9535 70.3152 12.8457 58.2909 16.4336 48.571Z" fill="white" stroke="#FDC700" stroke-width="10"/>
<path d="M84.4112 7.21952C79.9448 3.19976 41.2359 5.54462 22.4398 7.21952C16.1869 10.346 17.229 22.6658 18.5317 28.4349C12.0182 30.482 0.554444 37.2561 6.80741 47.9754C13.0604 58.6948 22.812 55.0473 26.9062 51.8835C37.179 67.9626 47.9356 58.5832 52.0298 51.8835C63.1958 68.4092 74.5479 58.7693 78.8282 51.8835C83.7412 57.2432 91.2969 56.35 94.4606 55.2334C107.413 41.8341 94.6467 31.7847 86.6444 28.4349C87.761 23.038 88.8776 11.2393 84.4112 7.21952Z" fill="white" stroke="#FDC700" stroke-width="10" stroke-linejoin="round"/>
<path d="M29.5652 31.2401C36.4509 33.8455 55.2471 37.4931 75.3459 31.2401" stroke="#FDC700" stroke-width="6" stroke-linecap="round" stroke-linejoin="round"/>
</svg>
